<mxfile host="app.diagrams.net" modified="2024-01-30T05:27:16.665Z" agent="Mozilla/5.0 (X11; Linux x86_64; rv:91.0) Gecko/20100101 Firefox/91.0" etag="rj8P-My6DCfCBdym0QZG" version="23.0.2" type="github" pages="2">
  <diagram name="Page-1" id="ElPZNQ6Rd7DKHmg664w7">
    <mxGraphModel dx="6797" dy="3267" grid="1" gridSize="10" guides="1" tooltips="1" connect="1" arrows="1" fold="1" page="1" pageScale="1" pageWidth="850" pageHeight="1100" math="0" shadow="0">
      <root>
        <mxCell id="0" />
        <mxCell id="1" parent="0" />
        <mxCell id="iwTZe3qdNlnF6z6AMZCM-52" style="edgeStyle=orthogonalEdgeStyle;rounded=0;orthogonalLoop=1;jettySize=auto;html=1;" parent="1" source="iwTZe3qdNlnF6z6AMZCM-2" edge="1">
          <mxGeometry relative="1" as="geometry">
            <mxPoint x="-1310" y="295" as="targetPoint" />
          </mxGeometry>
        </mxCell>
        <mxCell id="iwTZe3qdNlnF6z6AMZCM-2" value="Ax" style="text;html=1;align=center;verticalAlign=middle;resizable=0;points=[];autosize=1;strokeColor=none;fillColor=none;" parent="1" vertex="1">
          <mxGeometry x="-1680" y="280" width="40" height="30" as="geometry" />
        </mxCell>
        <mxCell id="iwTZe3qdNlnF6z6AMZCM-53" style="edgeStyle=orthogonalEdgeStyle;rounded=0;orthogonalLoop=1;jettySize=auto;html=1;" parent="1" source="iwTZe3qdNlnF6z6AMZCM-7" edge="1">
          <mxGeometry relative="1" as="geometry">
            <mxPoint x="-1310" y="335" as="targetPoint" />
          </mxGeometry>
        </mxCell>
        <mxCell id="iwTZe3qdNlnF6z6AMZCM-7" value="Px" style="text;html=1;align=center;verticalAlign=middle;resizable=0;points=[];autosize=1;strokeColor=none;fillColor=none;" parent="1" vertex="1">
          <mxGeometry x="-1680" y="320" width="40" height="30" as="geometry" />
        </mxCell>
        <mxCell id="iwTZe3qdNlnF6z6AMZCM-54" style="edgeStyle=orthogonalEdgeStyle;rounded=0;orthogonalLoop=1;jettySize=auto;html=1;" parent="1" source="iwTZe3qdNlnF6z6AMZCM-9" edge="1">
          <mxGeometry relative="1" as="geometry">
            <mxPoint x="-1310" y="375" as="targetPoint" />
          </mxGeometry>
        </mxCell>
        <mxCell id="iwTZe3qdNlnF6z6AMZCM-9" value="X_real" style="text;html=1;align=center;verticalAlign=middle;resizable=0;points=[];autosize=1;strokeColor=none;fillColor=none;" parent="1" vertex="1">
          <mxGeometry x="-1680" y="360" width="60" height="30" as="geometry" />
        </mxCell>
        <mxCell id="iwTZe3qdNlnF6z6AMZCM-55" style="edgeStyle=orthogonalEdgeStyle;rounded=0;orthogonalLoop=1;jettySize=auto;html=1;" parent="1" source="iwTZe3qdNlnF6z6AMZCM-11" edge="1">
          <mxGeometry relative="1" as="geometry">
            <mxPoint x="-1310" y="415" as="targetPoint" />
          </mxGeometry>
        </mxCell>
        <mxCell id="iwTZe3qdNlnF6z6AMZCM-11" value="X_buff" style="text;html=1;align=center;verticalAlign=middle;resizable=0;points=[];autosize=1;strokeColor=none;fillColor=none;" parent="1" vertex="1">
          <mxGeometry x="-1680" y="400" width="60" height="30" as="geometry" />
        </mxCell>
        <mxCell id="iwTZe3qdNlnF6z6AMZCM-13" value="FF" style="text;html=1;align=center;verticalAlign=middle;resizable=0;points=[];autosize=1;strokeColor=none;fillColor=none;" parent="1" vertex="1">
          <mxGeometry x="-1320" y="160" width="40" height="30" as="geometry" />
        </mxCell>
        <mxCell id="iwTZe3qdNlnF6z6AMZCM-57" style="edgeStyle=orthogonalEdgeStyle;rounded=0;orthogonalLoop=1;jettySize=auto;html=1;" parent="1" source="iwTZe3qdNlnF6z6AMZCM-15" edge="1">
          <mxGeometry relative="1" as="geometry">
            <mxPoint x="-1310" y="495" as="targetPoint" />
          </mxGeometry>
        </mxCell>
        <mxCell id="iwTZe3qdNlnF6z6AMZCM-15" value="rp_x" style="text;html=1;align=center;verticalAlign=middle;resizable=0;points=[];autosize=1;strokeColor=none;fillColor=none;" parent="1" vertex="1">
          <mxGeometry x="-1680" y="480" width="50" height="30" as="geometry" />
        </mxCell>
        <mxCell id="iwTZe3qdNlnF6z6AMZCM-17" value="&lt;div&gt;WE_win&lt;/div&gt;" style="text;html=1;align=center;verticalAlign=middle;resizable=0;points=[];autosize=1;strokeColor=none;fillColor=none;" parent="1" vertex="1">
          <mxGeometry x="-1240" y="160" width="70" height="30" as="geometry" />
        </mxCell>
        <mxCell id="iwTZe3qdNlnF6z6AMZCM-19" value="mul" style="whiteSpace=wrap;html=1;" parent="1" vertex="1">
          <mxGeometry x="-540" y="658" width="300" height="210" as="geometry" />
        </mxCell>
        <mxCell id="iwTZe3qdNlnF6z6AMZCM-21" value="ifft" style="whiteSpace=wrap;html=1;" parent="1" vertex="1">
          <mxGeometry x="-540" y="930" width="280" height="190" as="geometry" />
        </mxCell>
        <mxCell id="iwTZe3qdNlnF6z6AMZCM-22" value="gain_reg" style="whiteSpace=wrap;html=1;" parent="1" vertex="1">
          <mxGeometry x="-540" y="380" width="290" height="230" as="geometry" />
        </mxCell>
        <mxCell id="iwTZe3qdNlnF6z6AMZCM-23" value="conv_reg" style="whiteSpace=wrap;html=1;" parent="1" vertex="1">
          <mxGeometry x="-540" y="250" width="210" height="100" as="geometry" />
        </mxCell>
        <mxCell id="iwTZe3qdNlnF6z6AMZCM-59" style="edgeStyle=orthogonalEdgeStyle;rounded=0;orthogonalLoop=1;jettySize=auto;html=1;" parent="1" source="iwTZe3qdNlnF6z6AMZCM-26" edge="1">
          <mxGeometry relative="1" as="geometry">
            <mxPoint x="-1310" y="575" as="targetPoint" />
          </mxGeometry>
        </mxCell>
        <mxCell id="iwTZe3qdNlnF6z6AMZCM-26" value="Ay" style="text;html=1;align=center;verticalAlign=middle;resizable=0;points=[];autosize=1;strokeColor=none;fillColor=none;" parent="1" vertex="1">
          <mxGeometry x="-1675" y="560" width="40" height="30" as="geometry" />
        </mxCell>
        <mxCell id="iwTZe3qdNlnF6z6AMZCM-60" style="edgeStyle=orthogonalEdgeStyle;rounded=0;orthogonalLoop=1;jettySize=auto;html=1;" parent="1" source="iwTZe3qdNlnF6z6AMZCM-27" edge="1">
          <mxGeometry relative="1" as="geometry">
            <mxPoint x="-1310" y="613" as="targetPoint" />
          </mxGeometry>
        </mxCell>
        <mxCell id="iwTZe3qdNlnF6z6AMZCM-27" value="Y_real" style="text;html=1;align=center;verticalAlign=middle;resizable=0;points=[];autosize=1;strokeColor=none;fillColor=none;" parent="1" vertex="1">
          <mxGeometry x="-1680" y="598" width="60" height="30" as="geometry" />
        </mxCell>
        <mxCell id="iwTZe3qdNlnF6z6AMZCM-62" style="edgeStyle=orthogonalEdgeStyle;rounded=0;orthogonalLoop=1;jettySize=auto;html=1;" parent="1" source="iwTZe3qdNlnF6z6AMZCM-28" edge="1">
          <mxGeometry relative="1" as="geometry">
            <mxPoint x="-1310" y="655" as="targetPoint" />
          </mxGeometry>
        </mxCell>
        <mxCell id="iwTZe3qdNlnF6z6AMZCM-28" value="Y_img" style="text;html=1;align=center;verticalAlign=middle;resizable=0;points=[];autosize=1;strokeColor=none;fillColor=none;" parent="1" vertex="1">
          <mxGeometry x="-1680" y="640" width="60" height="30" as="geometry" />
        </mxCell>
        <mxCell id="iwTZe3qdNlnF6z6AMZCM-63" style="edgeStyle=orthogonalEdgeStyle;rounded=0;orthogonalLoop=1;jettySize=auto;html=1;" parent="1" source="iwTZe3qdNlnF6z6AMZCM-29" edge="1">
          <mxGeometry relative="1" as="geometry">
            <mxPoint x="-1310" y="695" as="targetPoint" />
          </mxGeometry>
        </mxCell>
        <mxCell id="iwTZe3qdNlnF6z6AMZCM-29" value="ytmp" style="text;html=1;align=center;verticalAlign=middle;resizable=0;points=[];autosize=1;strokeColor=none;fillColor=none;" parent="1" vertex="1">
          <mxGeometry x="-1680" y="680" width="50" height="30" as="geometry" />
        </mxCell>
        <mxCell id="iwTZe3qdNlnF6z6AMZCM-30" value="L" style="text;html=1;align=center;verticalAlign=middle;resizable=0;points=[];autosize=1;strokeColor=none;fillColor=none;" parent="1" vertex="1">
          <mxGeometry x="-1060" y="160" width="30" height="30" as="geometry" />
        </mxCell>
        <mxCell id="iwTZe3qdNlnF6z6AMZCM-31" value="S" style="text;html=1;align=center;verticalAlign=middle;resizable=0;points=[];autosize=1;strokeColor=none;fillColor=none;" parent="1" vertex="1">
          <mxGeometry x="-1130" y="160" width="30" height="30" as="geometry" />
        </mxCell>
        <mxCell id="iwTZe3qdNlnF6z6AMZCM-33" value="rp_y" style="text;html=1;align=center;verticalAlign=middle;resizable=0;points=[];autosize=1;strokeColor=none;fillColor=none;" parent="1" vertex="1">
          <mxGeometry x="-1680" y="800" width="50" height="30" as="geometry" />
        </mxCell>
        <mxCell id="iwTZe3qdNlnF6z6AMZCM-67" style="edgeStyle=orthogonalEdgeStyle;rounded=0;orthogonalLoop=1;jettySize=auto;html=1;" parent="1" source="iwTZe3qdNlnF6z6AMZCM-34" edge="1">
          <mxGeometry relative="1" as="geometry">
            <mxPoint x="-1310" y="853" as="targetPoint" />
          </mxGeometry>
        </mxCell>
        <mxCell id="iwTZe3qdNlnF6z6AMZCM-34" value="Ae" style="text;html=1;align=center;verticalAlign=middle;resizable=0;points=[];autosize=1;strokeColor=none;fillColor=none;" parent="1" vertex="1">
          <mxGeometry x="-1685" y="838" width="40" height="30" as="geometry" />
        </mxCell>
        <mxCell id="iwTZe3qdNlnF6z6AMZCM-68" style="edgeStyle=orthogonalEdgeStyle;rounded=0;orthogonalLoop=1;jettySize=auto;html=1;" parent="1" source="iwTZe3qdNlnF6z6AMZCM-35" edge="1">
          <mxGeometry relative="1" as="geometry">
            <mxPoint x="-1310" y="893" as="targetPoint" />
          </mxGeometry>
        </mxCell>
        <mxCell id="iwTZe3qdNlnF6z6AMZCM-35" value="E_real" style="text;html=1;align=center;verticalAlign=middle;resizable=0;points=[];autosize=1;strokeColor=none;fillColor=none;" parent="1" vertex="1">
          <mxGeometry x="-1680" y="878" width="60" height="30" as="geometry" />
        </mxCell>
        <mxCell id="iwTZe3qdNlnF6z6AMZCM-69" style="edgeStyle=orthogonalEdgeStyle;rounded=0;orthogonalLoop=1;jettySize=auto;html=1;" parent="1" source="iwTZe3qdNlnF6z6AMZCM-36" edge="1">
          <mxGeometry relative="1" as="geometry">
            <mxPoint x="-1310" y="935" as="targetPoint" />
          </mxGeometry>
        </mxCell>
        <mxCell id="iwTZe3qdNlnF6z6AMZCM-36" value="E_img" style="text;html=1;align=center;verticalAlign=middle;resizable=0;points=[];autosize=1;strokeColor=none;fillColor=none;" parent="1" vertex="1">
          <mxGeometry x="-1680" y="920" width="60" height="30" as="geometry" />
        </mxCell>
        <mxCell id="iwTZe3qdNlnF6z6AMZCM-70" style="edgeStyle=orthogonalEdgeStyle;rounded=0;orthogonalLoop=1;jettySize=auto;html=1;" parent="1" source="iwTZe3qdNlnF6z6AMZCM-37" edge="1">
          <mxGeometry relative="1" as="geometry">
            <mxPoint x="-1310" y="975" as="targetPoint" />
          </mxGeometry>
        </mxCell>
        <mxCell id="iwTZe3qdNlnF6z6AMZCM-37" value="etmp" style="text;html=1;align=center;verticalAlign=middle;resizable=0;points=[];autosize=1;strokeColor=none;fillColor=none;" parent="1" vertex="1">
          <mxGeometry x="-1680" y="960" width="50" height="30" as="geometry" />
        </mxCell>
        <mxCell id="iwTZe3qdNlnF6z6AMZCM-79" style="edgeStyle=orthogonalEdgeStyle;rounded=0;orthogonalLoop=1;jettySize=auto;html=1;" parent="1" source="iwTZe3qdNlnF6z6AMZCM-38" edge="1">
          <mxGeometry relative="1" as="geometry">
            <mxPoint x="-1310" y="1015" as="targetPoint" />
          </mxGeometry>
        </mxCell>
        <mxCell id="iwTZe3qdNlnF6z6AMZCM-38" value="W_real" style="text;html=1;align=center;verticalAlign=middle;resizable=0;points=[];autosize=1;strokeColor=none;fillColor=none;" parent="1" vertex="1">
          <mxGeometry x="-1680" y="1000" width="60" height="30" as="geometry" />
        </mxCell>
        <mxCell id="iwTZe3qdNlnF6z6AMZCM-78" style="edgeStyle=orthogonalEdgeStyle;rounded=0;orthogonalLoop=1;jettySize=auto;html=1;" parent="1" source="iwTZe3qdNlnF6z6AMZCM-39" edge="1">
          <mxGeometry relative="1" as="geometry">
            <mxPoint x="-1310" y="1055" as="targetPoint" />
          </mxGeometry>
        </mxCell>
        <mxCell id="iwTZe3qdNlnF6z6AMZCM-39" value="W_img" style="text;html=1;align=center;verticalAlign=middle;resizable=0;points=[];autosize=1;strokeColor=none;fillColor=none;" parent="1" vertex="1">
          <mxGeometry x="-1680" y="1040" width="60" height="30" as="geometry" />
        </mxCell>
        <mxCell id="iwTZe3qdNlnF6z6AMZCM-77" style="edgeStyle=orthogonalEdgeStyle;rounded=0;orthogonalLoop=1;jettySize=auto;html=1;" parent="1" source="iwTZe3qdNlnF6z6AMZCM-40" edge="1">
          <mxGeometry relative="1" as="geometry">
            <mxPoint x="-1310" y="1095" as="targetPoint" />
          </mxGeometry>
        </mxCell>
        <mxCell id="iwTZe3qdNlnF6z6AMZCM-40" value="tmp" style="text;html=1;align=center;verticalAlign=middle;resizable=0;points=[];autosize=1;strokeColor=none;fillColor=none;" parent="1" vertex="1">
          <mxGeometry x="-1680" y="1080" width="40" height="30" as="geometry" />
        </mxCell>
        <mxCell id="iwTZe3qdNlnF6z6AMZCM-72" style="edgeStyle=orthogonalEdgeStyle;rounded=0;orthogonalLoop=1;jettySize=auto;html=1;" parent="1" source="iwTZe3qdNlnF6z6AMZCM-42" edge="1">
          <mxGeometry relative="1" as="geometry">
            <mxPoint x="-1310" y="1295" as="targetPoint" />
          </mxGeometry>
        </mxCell>
        <mxCell id="iwTZe3qdNlnF6z6AMZCM-42" value="dW_img" style="text;html=1;align=center;verticalAlign=middle;resizable=0;points=[];autosize=1;strokeColor=none;fillColor=none;" parent="1" vertex="1">
          <mxGeometry x="-1685" y="1280" width="70" height="30" as="geometry" />
        </mxCell>
        <mxCell id="iwTZe3qdNlnF6z6AMZCM-74" style="edgeStyle=orthogonalEdgeStyle;rounded=0;orthogonalLoop=1;jettySize=auto;html=1;" parent="1" source="iwTZe3qdNlnF6z6AMZCM-43" edge="1">
          <mxGeometry relative="1" as="geometry">
            <mxPoint x="-1310" y="1255" as="targetPoint" />
          </mxGeometry>
        </mxCell>
        <mxCell id="iwTZe3qdNlnF6z6AMZCM-43" value="dW_real" style="text;html=1;align=center;verticalAlign=middle;resizable=0;points=[];autosize=1;strokeColor=none;fillColor=none;" parent="1" vertex="1">
          <mxGeometry x="-1685" y="1240" width="70" height="30" as="geometry" />
        </mxCell>
        <mxCell id="iwTZe3qdNlnF6z6AMZCM-73" style="edgeStyle=orthogonalEdgeStyle;rounded=0;orthogonalLoop=1;jettySize=auto;html=1;" parent="1" source="iwTZe3qdNlnF6z6AMZCM-46" edge="1">
          <mxGeometry relative="1" as="geometry">
            <mxPoint x="-1310" y="1215" as="targetPoint" />
          </mxGeometry>
        </mxCell>
        <mxCell id="iwTZe3qdNlnF6z6AMZCM-46" value="dD_real" style="text;html=1;align=center;verticalAlign=middle;resizable=0;points=[];autosize=1;strokeColor=none;fillColor=none;" parent="1" vertex="1">
          <mxGeometry x="-1685" y="1200" width="70" height="30" as="geometry" />
        </mxCell>
        <mxCell id="iwTZe3qdNlnF6z6AMZCM-75" style="edgeStyle=orthogonalEdgeStyle;rounded=0;orthogonalLoop=1;jettySize=auto;html=1;" parent="1" source="iwTZe3qdNlnF6z6AMZCM-47" edge="1">
          <mxGeometry relative="1" as="geometry">
            <mxPoint x="-1310" y="1175" as="targetPoint" />
          </mxGeometry>
        </mxCell>
        <mxCell id="iwTZe3qdNlnF6z6AMZCM-47" value="dD_img" style="text;html=1;align=center;verticalAlign=middle;resizable=0;points=[];autosize=1;strokeColor=none;fillColor=none;" parent="1" vertex="1">
          <mxGeometry x="-1680" y="1160" width="60" height="30" as="geometry" />
        </mxCell>
        <mxCell id="iwTZe3qdNlnF6z6AMZCM-71" style="edgeStyle=orthogonalEdgeStyle;rounded=0;orthogonalLoop=1;jettySize=auto;html=1;" parent="1" source="iwTZe3qdNlnF6z6AMZCM-48" edge="1">
          <mxGeometry relative="1" as="geometry">
            <mxPoint x="-1310" y="1335" as="targetPoint" />
          </mxGeometry>
        </mxCell>
        <mxCell id="iwTZe3qdNlnF6z6AMZCM-48" value="dtmp" style="text;html=1;align=center;verticalAlign=middle;resizable=0;points=[];autosize=1;strokeColor=none;fillColor=none;" parent="1" vertex="1">
          <mxGeometry x="-1680" y="1320" width="50" height="30" as="geometry" />
        </mxCell>
        <mxCell id="iwTZe3qdNlnF6z6AMZCM-81" value="" style="endArrow=classic;html=1;rounded=0;entryX=0;entryY=0.5;entryDx=0;entryDy=0;" parent="1" edge="1">
          <mxGeometry width="50" height="50" relative="1" as="geometry">
            <mxPoint x="-1630" y="810" as="sourcePoint" />
            <mxPoint x="-1310" y="810" as="targetPoint" />
          </mxGeometry>
        </mxCell>
        <mxCell id="iwTZe3qdNlnF6z6AMZCM-82" style="edgeStyle=orthogonalEdgeStyle;rounded=0;orthogonalLoop=1;jettySize=auto;html=1;entryX=0.037;entryY=0;entryDx=0;entryDy=0;entryPerimeter=0;" parent="1" source="iwTZe3qdNlnF6z6AMZCM-13" edge="1">
          <mxGeometry relative="1" as="geometry">
            <mxPoint x="-1299.27" y="260" as="targetPoint" />
          </mxGeometry>
        </mxCell>
        <mxCell id="iwTZe3qdNlnF6z6AMZCM-83" style="edgeStyle=orthogonalEdgeStyle;rounded=0;orthogonalLoop=1;jettySize=auto;html=1;entryX=0.365;entryY=0.002;entryDx=0;entryDy=0;entryPerimeter=0;" parent="1" source="iwTZe3qdNlnF6z6AMZCM-17" edge="1">
          <mxGeometry relative="1" as="geometry">
            <mxPoint x="-1204.15" y="262.20000000000005" as="targetPoint" />
          </mxGeometry>
        </mxCell>
        <mxCell id="iwTZe3qdNlnF6z6AMZCM-84" style="edgeStyle=orthogonalEdgeStyle;rounded=0;orthogonalLoop=1;jettySize=auto;html=1;entryX=0.675;entryY=0;entryDx=0;entryDy=0;entryPerimeter=0;" parent="1" source="iwTZe3qdNlnF6z6AMZCM-31" edge="1">
          <mxGeometry relative="1" as="geometry">
            <mxPoint x="-1114.25" y="260" as="targetPoint" />
          </mxGeometry>
        </mxCell>
        <mxCell id="iwTZe3qdNlnF6z6AMZCM-85" style="edgeStyle=orthogonalEdgeStyle;rounded=0;orthogonalLoop=1;jettySize=auto;html=1;" parent="1" source="iwTZe3qdNlnF6z6AMZCM-30" edge="1">
          <mxGeometry relative="1" as="geometry">
            <mxPoint x="-1044" y="260" as="targetPoint" />
          </mxGeometry>
        </mxCell>
        <mxCell id="iwTZe3qdNlnF6z6AMZCM-86" value="" style="endArrow=classic;html=1;rounded=0;entryX=0.928;entryY=1.004;entryDx=0;entryDy=0;entryPerimeter=0;" parent="1" target="iwTZe3qdNlnF6z6AMZCM-21" edge="1">
          <mxGeometry width="50" height="50" relative="1" as="geometry">
            <mxPoint x="-1560" y="1060" as="sourcePoint" />
            <mxPoint x="-289.96000000000004" y="1120" as="targetPoint" />
            <Array as="points">
              <mxPoint x="-1560" y="1560" />
              <mxPoint x="-280" y="1560" />
              <mxPoint x="-281" y="1130" />
            </Array>
          </mxGeometry>
        </mxCell>
        <mxCell id="iwTZe3qdNlnF6z6AMZCM-89" value="" style="endArrow=classic;html=1;rounded=0;entryX=0.966;entryY=1.002;entryDx=0;entryDy=0;entryPerimeter=0;" parent="1" target="iwTZe3qdNlnF6z6AMZCM-21" edge="1">
          <mxGeometry width="50" height="50" relative="1" as="geometry">
            <mxPoint x="-1570" y="1020" as="sourcePoint" />
            <mxPoint x="-280" y="1120" as="targetPoint" />
            <Array as="points">
              <mxPoint x="-1570" y="1320" />
              <mxPoint x="-1570" y="1570" />
              <mxPoint x="-270" y="1570" />
            </Array>
          </mxGeometry>
        </mxCell>
        <mxCell id="iwTZe3qdNlnF6z6AMZCM-95" value="" style="endArrow=classic;html=1;rounded=0;exitX=0.462;exitY=0.672;exitDx=0;exitDy=0;exitPerimeter=0;" parent="1" source="y7qUvzlX0odKQmyKiK_r-60" edge="1">
          <mxGeometry width="50" height="50" relative="1" as="geometry">
            <mxPoint x="-1580" y="900" as="sourcePoint" />
            <mxPoint x="-260" y="1120" as="targetPoint" />
            <Array as="points">
              <mxPoint x="-1580" y="1580" />
              <mxPoint x="-260" y="1580" />
            </Array>
          </mxGeometry>
        </mxCell>
        <mxCell id="iwTZe3qdNlnF6z6AMZCM-99" value="" style="endArrow=classic;html=1;rounded=0;" parent="1" edge="1">
          <mxGeometry width="50" height="50" relative="1" as="geometry">
            <mxPoint x="-1550" y="1100" as="sourcePoint" />
            <mxPoint x="-290" y="1120" as="targetPoint" />
            <Array as="points">
              <mxPoint x="-1550" y="1550" />
              <mxPoint x="-290" y="1550" />
            </Array>
          </mxGeometry>
        </mxCell>
        <mxCell id="iwTZe3qdNlnF6z6AMZCM-100" value="AVE_win" style="text;html=1;align=center;verticalAlign=middle;resizable=0;points=[];autosize=1;strokeColor=none;fillColor=none;" parent="1" vertex="1">
          <mxGeometry x="-535" y="158" width="70" height="30" as="geometry" />
        </mxCell>
        <mxCell id="iwTZe3qdNlnF6z6AMZCM-107" value="FFT" style="rounded=0;whiteSpace=wrap;html=1;" parent="1" vertex="1">
          <mxGeometry x="-1310" y="250" width="310" height="1105" as="geometry" />
        </mxCell>
        <mxCell id="iwTZe3qdNlnF6z6AMZCM-114" value="" style="endArrow=classic;html=1;rounded=0;" parent="1" edge="1">
          <mxGeometry width="50" height="50" relative="1" as="geometry">
            <mxPoint x="-1530" y="1260" as="sourcePoint" />
            <mxPoint x="-310" y="1120" as="targetPoint" />
            <Array as="points">
              <mxPoint x="-1530" y="1530" />
              <mxPoint x="-310" y="1530" />
            </Array>
          </mxGeometry>
        </mxCell>
        <mxCell id="iwTZe3qdNlnF6z6AMZCM-115" value="" style="endArrow=classic;html=1;rounded=0;" parent="1" edge="1">
          <mxGeometry width="50" height="50" relative="1" as="geometry">
            <mxPoint x="-1520" y="1300" as="sourcePoint" />
            <mxPoint x="-320" y="1120" as="targetPoint" />
            <Array as="points">
              <mxPoint x="-1520" y="1520" />
              <mxPoint x="-320" y="1520" />
            </Array>
          </mxGeometry>
        </mxCell>
        <mxCell id="iwTZe3qdNlnF6z6AMZCM-116" value="" style="endArrow=classic;html=1;rounded=0;entryX=0.75;entryY=1;entryDx=0;entryDy=0;entryPerimeter=0;" parent="1" target="iwTZe3qdNlnF6z6AMZCM-21" edge="1">
          <mxGeometry width="50" height="50" relative="1" as="geometry">
            <mxPoint x="-1510" y="1340" as="sourcePoint" />
            <mxPoint x="-250" y="1361" as="targetPoint" />
            <Array as="points">
              <mxPoint x="-1510" y="1510" />
              <mxPoint x="-330" y="1510" />
            </Array>
          </mxGeometry>
        </mxCell>
        <mxCell id="iwTZe3qdNlnF6z6AMZCM-117" value="&lt;div&gt;D_real&lt;/div&gt;" style="text;html=1;align=center;verticalAlign=middle;resizable=0;points=[];autosize=1;strokeColor=none;fillColor=none;" parent="1" vertex="1">
          <mxGeometry x="-940" y="680" width="60" height="30" as="geometry" />
        </mxCell>
        <mxCell id="iwTZe3qdNlnF6z6AMZCM-118" value="D_img" style="text;html=1;align=center;verticalAlign=middle;resizable=0;points=[];autosize=1;strokeColor=none;fillColor=none;" parent="1" vertex="1">
          <mxGeometry x="-940" y="718" width="60" height="30" as="geometry" />
        </mxCell>
        <mxCell id="iwTZe3qdNlnF6z6AMZCM-119" style="edgeStyle=orthogonalEdgeStyle;rounded=0;orthogonalLoop=1;jettySize=auto;html=1;entryX=0.001;entryY=0.177;entryDx=0;entryDy=0;entryPerimeter=0;" parent="1" source="iwTZe3qdNlnF6z6AMZCM-117" target="iwTZe3qdNlnF6z6AMZCM-19" edge="1">
          <mxGeometry relative="1" as="geometry" />
        </mxCell>
        <mxCell id="iwTZe3qdNlnF6z6AMZCM-122" style="edgeStyle=orthogonalEdgeStyle;rounded=0;orthogonalLoop=1;jettySize=auto;html=1;entryX=0;entryY=0.357;entryDx=0;entryDy=0;entryPerimeter=0;" parent="1" source="iwTZe3qdNlnF6z6AMZCM-118" target="iwTZe3qdNlnF6z6AMZCM-19" edge="1">
          <mxGeometry relative="1" as="geometry" />
        </mxCell>
        <mxCell id="iwTZe3qdNlnF6z6AMZCM-123" value="" style="endArrow=classic;html=1;rounded=0;entryX=-0.003;entryY=0.208;entryDx=0;entryDy=0;entryPerimeter=0;" parent="1" target="iwTZe3qdNlnF6z6AMZCM-21" edge="1">
          <mxGeometry width="50" height="50" relative="1" as="geometry">
            <mxPoint x="-860" y="740" as="sourcePoint" />
            <mxPoint x="-620" y="780" as="targetPoint" />
            <Array as="points">
              <mxPoint x="-860" y="970" />
            </Array>
          </mxGeometry>
        </mxCell>
        <mxCell id="iwTZe3qdNlnF6z6AMZCM-124" value="" style="endArrow=classic;html=1;rounded=0;exitX=0.482;exitY=0.682;exitDx=0;exitDy=0;exitPerimeter=0;" parent="1" source="y7qUvzlX0odKQmyKiK_r-63" edge="1">
          <mxGeometry width="50" height="50" relative="1" as="geometry">
            <mxPoint x="-870" y="700" as="sourcePoint" />
            <mxPoint x="-540" y="980" as="targetPoint" />
            <Array as="points">
              <mxPoint x="-870" y="980" />
            </Array>
          </mxGeometry>
        </mxCell>
        <mxCell id="iwTZe3qdNlnF6z6AMZCM-125" value="" style="endArrow=classic;html=1;rounded=0;" parent="1" edge="1">
          <mxGeometry width="50" height="50" relative="1" as="geometry">
            <mxPoint x="-1500" y="375" as="sourcePoint" />
            <mxPoint x="-540" y="745" as="targetPoint" />
            <Array as="points">
              <mxPoint x="-1500" y="1500" />
              <mxPoint x="-830" y="1500" />
              <mxPoint x="-830" y="745" />
            </Array>
          </mxGeometry>
        </mxCell>
        <mxCell id="iwTZe3qdNlnF6z6AMZCM-126" value="" style="endArrow=classic;html=1;rounded=0;entryX=-0.003;entryY=0.533;entryDx=0;entryDy=0;entryPerimeter=0;" parent="1" target="iwTZe3qdNlnF6z6AMZCM-19" edge="1">
          <mxGeometry width="50" height="50" relative="1" as="geometry">
            <mxPoint x="-1481.12" y="1020" as="sourcePoint" />
            <mxPoint x="-540.0000000000001" y="1019.6800000000001" as="targetPoint" />
            <Array as="points">
              <mxPoint x="-1481.12" y="1480" />
              <mxPoint x="-811.12" y="1480" />
              <mxPoint x="-811" y="770" />
            </Array>
          </mxGeometry>
        </mxCell>
        <mxCell id="iwTZe3qdNlnF6z6AMZCM-127" value="" style="endArrow=classic;html=1;rounded=0;entryX=-0.001;entryY=0.485;entryDx=0;entryDy=0;entryPerimeter=0;" parent="1" target="iwTZe3qdNlnF6z6AMZCM-19" edge="1">
          <mxGeometry width="50" height="50" relative="1" as="geometry">
            <mxPoint x="-1490" y="418.8235294117647" as="sourcePoint" />
            <mxPoint x="-550" y="1010" as="targetPoint" />
            <Array as="points">
              <mxPoint x="-1490" y="1490" />
              <mxPoint x="-820" y="1490" />
              <mxPoint x="-820" y="760" />
            </Array>
          </mxGeometry>
        </mxCell>
        <mxCell id="iwTZe3qdNlnF6z6AMZCM-128" value="" style="endArrow=classic;html=1;rounded=0;entryX=0.001;entryY=0.58;entryDx=0;entryDy=0;entryPerimeter=0;" parent="1" target="iwTZe3qdNlnF6z6AMZCM-19" edge="1">
          <mxGeometry width="50" height="50" relative="1" as="geometry">
            <mxPoint x="-1470" y="1060" as="sourcePoint" />
            <mxPoint x="-540" y="1030" as="targetPoint" />
            <Array as="points">
              <mxPoint x="-1470" y="1470" />
              <mxPoint x="-800" y="1470" />
              <mxPoint x="-800" y="780" />
            </Array>
          </mxGeometry>
        </mxCell>
        <mxCell id="iwTZe3qdNlnF6z6AMZCM-129" value="" style="endArrow=classic;html=1;rounded=0;entryX=-0.001;entryY=0.631;entryDx=0;entryDy=0;entryPerimeter=0;" parent="1" target="iwTZe3qdNlnF6z6AMZCM-19" edge="1">
          <mxGeometry width="50" height="50" relative="1" as="geometry">
            <mxPoint x="-1460" y="1180" as="sourcePoint" />
            <mxPoint x="-640" y="1080" as="targetPoint" />
            <Array as="points">
              <mxPoint x="-1460" y="1460" />
              <mxPoint x="-790" y="1460" />
              <mxPoint x="-790" y="790" />
            </Array>
          </mxGeometry>
        </mxCell>
        <mxCell id="iwTZe3qdNlnF6z6AMZCM-130" value="" style="endArrow=classic;html=1;rounded=0;" parent="1" edge="1">
          <mxGeometry width="50" height="50" relative="1" as="geometry">
            <mxPoint x="-1450" y="1220" as="sourcePoint" />
            <mxPoint x="-540" y="800" as="targetPoint" />
            <Array as="points">
              <mxPoint x="-1450" y="1450" />
              <mxPoint x="-780" y="1450" />
              <mxPoint x="-780" y="800" />
            </Array>
          </mxGeometry>
        </mxCell>
        <mxCell id="iwTZe3qdNlnF6z6AMZCM-135" style="edgeStyle=orthogonalEdgeStyle;rounded=0;orthogonalLoop=1;jettySize=auto;html=1;" parent="1" edge="1">
          <mxGeometry relative="1" as="geometry">
            <mxPoint x="-540" y="1004.74" as="targetPoint" />
            <mxPoint x="-870" y="1004.74" as="sourcePoint" />
          </mxGeometry>
        </mxCell>
        <mxCell id="iwTZe3qdNlnF6z6AMZCM-132" value="cmpE_real" style="text;html=1;align=center;verticalAlign=middle;resizable=0;points=[];autosize=1;strokeColor=none;fillColor=none;" parent="1" vertex="1">
          <mxGeometry x="-960" y="990" width="80" height="30" as="geometry" />
        </mxCell>
        <mxCell id="iwTZe3qdNlnF6z6AMZCM-133" value="cmpE_img" style="text;html=1;align=center;verticalAlign=middle;resizable=0;points=[];autosize=1;strokeColor=none;fillColor=none;" parent="1" vertex="1">
          <mxGeometry x="-960" y="1030" width="80" height="30" as="geometry" />
        </mxCell>
        <mxCell id="iwTZe3qdNlnF6z6AMZCM-138" value="" style="endArrow=classic;html=1;rounded=0;entryX=0;entryY=0.724;entryDx=0;entryDy=0;entryPerimeter=0;" parent="1" target="iwTZe3qdNlnF6z6AMZCM-19" edge="1">
          <mxGeometry width="50" height="50" relative="1" as="geometry">
            <mxPoint x="-1440" y="1260" as="sourcePoint" />
            <mxPoint x="-510" y="838" as="targetPoint" />
            <Array as="points">
              <mxPoint x="-1440" y="1440" />
              <mxPoint x="-770" y="1440" />
              <mxPoint x="-770" y="810" />
            </Array>
          </mxGeometry>
        </mxCell>
        <mxCell id="iwTZe3qdNlnF6z6AMZCM-139" value="" style="endArrow=classic;html=1;rounded=0;entryX=0;entryY=0.771;entryDx=0;entryDy=0;entryPerimeter=0;" parent="1" target="iwTZe3qdNlnF6z6AMZCM-19" edge="1">
          <mxGeometry width="50" height="50" relative="1" as="geometry">
            <mxPoint x="-1430" y="1298" as="sourcePoint" />
            <mxPoint x="-480" y="878" as="targetPoint" />
            <Array as="points">
              <mxPoint x="-1430" y="1430" />
              <mxPoint x="-760" y="1430" />
              <mxPoint x="-760" y="820" />
            </Array>
          </mxGeometry>
        </mxCell>
        <mxCell id="iwTZe3qdNlnF6z6AMZCM-140" style="edgeStyle=orthogonalEdgeStyle;rounded=0;orthogonalLoop=1;jettySize=auto;html=1;entryX=-0.003;entryY=0.601;entryDx=0;entryDy=0;entryPerimeter=0;" parent="1" source="iwTZe3qdNlnF6z6AMZCM-133" target="iwTZe3qdNlnF6z6AMZCM-21" edge="1">
          <mxGeometry relative="1" as="geometry" />
        </mxCell>
        <mxCell id="iwTZe3qdNlnF6z6AMZCM-141" style="edgeStyle=orthogonalEdgeStyle;rounded=0;orthogonalLoop=1;jettySize=auto;html=1;entryX=0.188;entryY=-0.036;entryDx=0;entryDy=0;entryPerimeter=0;" parent="1" source="iwTZe3qdNlnF6z6AMZCM-100" target="iwTZe3qdNlnF6z6AMZCM-23" edge="1">
          <mxGeometry relative="1" as="geometry" />
        </mxCell>
        <mxCell id="iwTZe3qdNlnF6z6AMZCM-142" value="" style="endArrow=classic;html=1;rounded=0;entryX=0;entryY=0.13;entryDx=0;entryDy=0;entryPerimeter=0;" parent="1" target="iwTZe3qdNlnF6z6AMZCM-22" edge="1">
          <mxGeometry width="50" height="50" relative="1" as="geometry">
            <mxPoint x="-500" y="210" as="sourcePoint" />
            <mxPoint x="-600" y="400" as="targetPoint" />
            <Array as="points">
              <mxPoint x="-600" y="210" />
              <mxPoint x="-600" y="410" />
            </Array>
          </mxGeometry>
        </mxCell>
        <mxCell id="iwTZe3qdNlnF6z6AMZCM-143" value="Px_ave" style="text;html=1;align=center;verticalAlign=middle;resizable=0;points=[];autosize=1;strokeColor=none;fillColor=none;" parent="1" vertex="1">
          <mxGeometry x="-940" y="320" width="60" height="30" as="geometry" />
        </mxCell>
        <mxCell id="iwTZe3qdNlnF6z6AMZCM-145" value="" style="endArrow=classic;html=1;rounded=0;entryX=-0.009;entryY=0.695;entryDx=0;entryDy=0;entryPerimeter=0;" parent="1" source="y7qUvzlX0odKQmyKiK_r-101" target="iwTZe3qdNlnF6z6AMZCM-23" edge="1">
          <mxGeometry width="50" height="50" relative="1" as="geometry">
            <mxPoint x="-1400" y="340" as="sourcePoint" />
            <mxPoint x="-550" y="470" as="targetPoint" />
            <Array as="points">
              <mxPoint x="-1400" y="1400" />
              <mxPoint x="-730" y="1400" />
              <mxPoint x="-730" y="320" />
            </Array>
          </mxGeometry>
        </mxCell>
        <mxCell id="iwTZe3qdNlnF6z6AMZCM-146" value="Ratio_yx" style="text;html=1;align=center;verticalAlign=middle;resizable=0;points=[];autosize=1;strokeColor=none;fillColor=none;" parent="1" vertex="1">
          <mxGeometry x="-940" y="500" width="70" height="30" as="geometry" />
        </mxCell>
        <mxCell id="iwTZe3qdNlnF6z6AMZCM-147" value="Ratio_ex" style="text;html=1;align=center;verticalAlign=middle;resizable=0;points=[];autosize=1;strokeColor=none;fillColor=none;" parent="1" vertex="1">
          <mxGeometry x="-940" y="440" width="70" height="30" as="geometry" />
        </mxCell>
        <mxCell id="iwTZe3qdNlnF6z6AMZCM-148" style="edgeStyle=orthogonalEdgeStyle;rounded=0;orthogonalLoop=1;jettySize=auto;html=1;entryX=-0.01;entryY=0.844;entryDx=0;entryDy=0;entryPerimeter=0;" parent="1" source="iwTZe3qdNlnF6z6AMZCM-143" target="iwTZe3qdNlnF6z6AMZCM-23" edge="1">
          <mxGeometry relative="1" as="geometry" />
        </mxCell>
        <mxCell id="iwTZe3qdNlnF6z6AMZCM-149" style="edgeStyle=orthogonalEdgeStyle;rounded=0;orthogonalLoop=1;jettySize=auto;html=1;entryX=-0.007;entryY=0.327;entryDx=0;entryDy=0;entryPerimeter=0;" parent="1" source="iwTZe3qdNlnF6z6AMZCM-147" target="iwTZe3qdNlnF6z6AMZCM-22" edge="1">
          <mxGeometry relative="1" as="geometry" />
        </mxCell>
        <mxCell id="iwTZe3qdNlnF6z6AMZCM-150" style="edgeStyle=orthogonalEdgeStyle;rounded=0;orthogonalLoop=1;jettySize=auto;html=1;entryX=-0.007;entryY=0.584;entryDx=0;entryDy=0;entryPerimeter=0;" parent="1" source="iwTZe3qdNlnF6z6AMZCM-146" target="iwTZe3qdNlnF6z6AMZCM-22" edge="1">
          <mxGeometry relative="1" as="geometry" />
        </mxCell>
        <mxCell id="iwTZe3qdNlnF6z6AMZCM-151" value="" style="endArrow=classic;html=1;rounded=0;" parent="1" source="y7qUvzlX0odKQmyKiK_r-103" edge="1">
          <mxGeometry width="50" height="50" relative="1" as="geometry">
            <mxPoint x="-1370" y="300" as="sourcePoint" />
            <mxPoint x="-540" y="550" as="targetPoint" />
            <Array as="points">
              <mxPoint x="-1370" y="1390" />
              <mxPoint x="-690" y="1390" />
              <mxPoint x="-690" y="550" />
            </Array>
          </mxGeometry>
        </mxCell>
        <mxCell id="iwTZe3qdNlnF6z6AMZCM-152" value="" style="endArrow=classic;html=1;rounded=0;" parent="1" edge="1">
          <mxGeometry width="50" height="50" relative="1" as="geometry">
            <mxPoint x="-1360" y="580" as="sourcePoint" />
            <mxPoint x="-540" y="560" as="targetPoint" />
            <Array as="points">
              <mxPoint x="-1360" y="1380" />
              <mxPoint x="-680" y="1380" />
              <mxPoint x="-680" y="560" />
            </Array>
          </mxGeometry>
        </mxCell>
        <mxCell id="y7qUvzlX0odKQmyKiK_r-6" value="" style="endArrow=none;html=1;rounded=0;" parent="1" edge="1">
          <mxGeometry width="50" height="50" relative="1" as="geometry">
            <mxPoint x="-1600" y="1340" as="sourcePoint" />
            <mxPoint x="-1760" y="970" as="targetPoint" />
            <Array as="points">
              <mxPoint x="-1600" y="1400" />
              <mxPoint x="-1760" y="1400" />
            </Array>
          </mxGeometry>
        </mxCell>
        <mxCell id="y7qUvzlX0odKQmyKiK_r-7" value="" style="endArrow=classic;html=1;rounded=0;entryX=0.009;entryY=0.346;entryDx=0;entryDy=0;entryPerimeter=0;" parent="1" target="iwTZe3qdNlnF6z6AMZCM-37" edge="1">
          <mxGeometry width="50" height="50" relative="1" as="geometry">
            <mxPoint x="-1760" y="970" as="sourcePoint" />
            <mxPoint x="-1410" y="930" as="targetPoint" />
          </mxGeometry>
        </mxCell>
        <mxCell id="y7qUvzlX0odKQmyKiK_r-8" value="" style="endArrow=none;html=1;rounded=0;" parent="1" source="y7qUvzlX0odKQmyKiK_r-14" edge="1">
          <mxGeometry width="50" height="50" relative="1" as="geometry">
            <mxPoint x="-1610" y="1400" as="sourcePoint" />
            <mxPoint x="-1610" y="690" as="targetPoint" />
          </mxGeometry>
        </mxCell>
        <mxCell id="y7qUvzlX0odKQmyKiK_r-15" value="" style="endArrow=none;html=1;rounded=0;" parent="1" target="y7qUvzlX0odKQmyKiK_r-14" edge="1">
          <mxGeometry width="50" height="50" relative="1" as="geometry">
            <mxPoint x="-1610" y="1400" as="sourcePoint" />
            <mxPoint x="-1610" y="690" as="targetPoint" />
          </mxGeometry>
        </mxCell>
        <mxCell id="y7qUvzlX0odKQmyKiK_r-14" value="" style="shape=waypoint;sketch=0;fillStyle=solid;size=6;pointerEvents=1;points=[];fillColor=none;resizable=0;rotatable=0;perimeter=centerPerimeter;snapToPoint=1;" parent="1" vertex="1">
          <mxGeometry x="-1620" y="685" width="20" height="20" as="geometry" />
        </mxCell>
        <mxCell id="y7qUvzlX0odKQmyKiK_r-16" value="" style="shape=waypoint;sketch=0;fillStyle=solid;size=6;pointerEvents=1;points=[];fillColor=none;resizable=0;rotatable=0;perimeter=centerPerimeter;snapToPoint=1;" parent="1" vertex="1">
          <mxGeometry x="-1620" y="1390" width="20" height="20" as="geometry" />
        </mxCell>
        <mxCell id="y7qUvzlX0odKQmyKiK_r-21" value="" style="edgeStyle=segmentEdgeStyle;endArrow=classic;html=1;curved=0;rounded=0;endSize=8;startSize=8;" parent="1" edge="1">
          <mxGeometry width="50" height="50" relative="1" as="geometry">
            <mxPoint x="-850" y="520" as="sourcePoint" />
            <mxPoint x="-940" y="460" as="targetPoint" />
            <Array as="points">
              <mxPoint x="-850" y="570" />
              <mxPoint x="-980" y="570" />
              <mxPoint x="-980" y="460" />
            </Array>
          </mxGeometry>
        </mxCell>
        <mxCell id="y7qUvzlX0odKQmyKiK_r-24" value="" style="shape=waypoint;sketch=0;fillStyle=solid;size=6;pointerEvents=1;points=[];fillColor=none;resizable=0;rotatable=0;perimeter=centerPerimeter;snapToPoint=1;" parent="1" vertex="1">
          <mxGeometry x="-860" y="505" width="20" height="20" as="geometry" />
        </mxCell>
        <mxCell id="y7qUvzlX0odKQmyKiK_r-25" value="Phi_win" style="text;html=1;align=center;verticalAlign=middle;resizable=0;points=[];autosize=1;strokeColor=none;fillColor=none;" parent="1" vertex="1">
          <mxGeometry x="-780" y="280" width="70" height="30" as="geometry" />
        </mxCell>
        <mxCell id="y7qUvzlX0odKQmyKiK_r-70" style="edgeStyle=orthogonalEdgeStyle;rounded=0;orthogonalLoop=1;jettySize=auto;html=1;" parent="1" source="y7qUvzlX0odKQmyKiK_r-26" target="y7qUvzlX0odKQmyKiK_r-64" edge="1">
          <mxGeometry relative="1" as="geometry" />
        </mxCell>
        <mxCell id="y7qUvzlX0odKQmyKiK_r-26" value="Phi" style="text;html=1;align=center;verticalAlign=middle;resizable=0;points=[];autosize=1;strokeColor=none;fillColor=none;" parent="1" vertex="1">
          <mxGeometry x="-760" y="128" width="40" height="30" as="geometry" />
        </mxCell>
        <mxCell id="y7qUvzlX0odKQmyKiK_r-27" value="" style="edgeStyle=elbowEdgeStyle;elbow=vertical;endArrow=classic;html=1;curved=0;rounded=0;endSize=8;startSize=8;entryX=0.378;entryY=-0.096;entryDx=0;entryDy=0;entryPerimeter=0;" parent="1" target="y7qUvzlX0odKQmyKiK_r-26" edge="1">
          <mxGeometry width="50" height="50" relative="1" as="geometry">
            <mxPoint x="-1610" y="290" as="sourcePoint" />
            <mxPoint x="-830" y="130" as="targetPoint" />
            <Array as="points">
              <mxPoint x="-1270" y="80" />
            </Array>
          </mxGeometry>
        </mxCell>
        <mxCell id="y7qUvzlX0odKQmyKiK_r-33" value="" style="shape=waypoint;sketch=0;size=6;pointerEvents=1;points=[];fillColor=none;resizable=0;rotatable=0;perimeter=centerPerimeter;snapToPoint=1;" parent="1" vertex="1">
          <mxGeometry x="-1620" y="285" width="20" height="20" as="geometry" />
        </mxCell>
        <mxCell id="y7qUvzlX0odKQmyKiK_r-37" value="" style="shape=waypoint;sketch=0;size=6;pointerEvents=1;points=[];fillColor=none;resizable=0;rotatable=0;perimeter=centerPerimeter;snapToPoint=1;" parent="1" vertex="1">
          <mxGeometry x="-1590" y="843" width="20" height="20" as="geometry" />
        </mxCell>
        <mxCell id="y7qUvzlX0odKQmyKiK_r-38" value="" style="shape=waypoint;sketch=0;size=6;pointerEvents=1;points=[];fillColor=none;resizable=0;rotatable=0;perimeter=centerPerimeter;snapToPoint=1;" parent="1" vertex="1">
          <mxGeometry x="-1590" y="70" width="20" height="20" as="geometry" />
        </mxCell>
        <mxCell id="y7qUvzlX0odKQmyKiK_r-39" value="EPSILON" style="text;html=1;align=center;verticalAlign=middle;resizable=0;points=[];autosize=1;strokeColor=none;fillColor=none;" parent="1" vertex="1">
          <mxGeometry x="-1730" y="65" width="70" height="30" as="geometry" />
        </mxCell>
        <mxCell id="y7qUvzlX0odKQmyKiK_r-42" value="" style="edgeStyle=none;orthogonalLoop=1;jettySize=auto;html=1;rounded=0;" parent="1" edge="1">
          <mxGeometry width="100" relative="1" as="geometry">
            <mxPoint x="-830" y="80" as="sourcePoint" />
            <mxPoint x="-830" y="80" as="targetPoint" />
            <Array as="points" />
          </mxGeometry>
        </mxCell>
        <mxCell id="y7qUvzlX0odKQmyKiK_r-47" value="" style="edgeStyle=none;orthogonalLoop=1;jettySize=auto;html=1;rounded=0;" parent="1" target="y7qUvzlX0odKQmyKiK_r-46" edge="1">
          <mxGeometry width="100" relative="1" as="geometry">
            <mxPoint x="-830" y="455" as="sourcePoint" />
            <mxPoint x="-830" y="180" as="targetPoint" />
            <Array as="points" />
          </mxGeometry>
        </mxCell>
        <mxCell id="y7qUvzlX0odKQmyKiK_r-46" value="" style="shape=waypoint;sketch=0;size=6;pointerEvents=1;points=[];fillColor=none;resizable=0;rotatable=0;perimeter=centerPerimeter;snapToPoint=1;" parent="1" vertex="1">
          <mxGeometry x="-840" y="445" width="20" height="20" as="geometry" />
        </mxCell>
        <mxCell id="y7qUvzlX0odKQmyKiK_r-52" value="" style="endArrow=none;html=1;rounded=0;exitX=0.791;exitY=0.671;exitDx=0;exitDy=0;exitPerimeter=0;" parent="1" source="y7qUvzlX0odKQmyKiK_r-46" edge="1">
          <mxGeometry width="50" height="50" relative="1" as="geometry">
            <mxPoint x="-820" y="320" as="sourcePoint" />
            <mxPoint x="-830" y="80" as="targetPoint" />
          </mxGeometry>
        </mxCell>
        <mxCell id="y7qUvzlX0odKQmyKiK_r-53" value="" style="endArrow=none;html=1;rounded=0;exitX=1;exitY=0.333;exitDx=0;exitDy=0;exitPerimeter=0;" parent="1" source="y7qUvzlX0odKQmyKiK_r-25" edge="1">
          <mxGeometry width="50" height="50" relative="1" as="geometry">
            <mxPoint x="-710" y="240" as="sourcePoint" />
            <mxPoint x="-680" y="140" as="targetPoint" />
            <Array as="points">
              <mxPoint x="-680" y="290" />
            </Array>
          </mxGeometry>
        </mxCell>
        <mxCell id="y7qUvzlX0odKQmyKiK_r-55" value="" style="endArrow=none;html=1;rounded=0;" parent="1" edge="1">
          <mxGeometry width="50" height="50" relative="1" as="geometry">
            <mxPoint x="-720" y="140" as="sourcePoint" />
            <mxPoint x="-750" y="80" as="targetPoint" />
            <Array as="points">
              <mxPoint x="-680" y="140" />
              <mxPoint x="-680" y="80" />
            </Array>
          </mxGeometry>
        </mxCell>
        <mxCell id="y7qUvzlX0odKQmyKiK_r-57" value="" style="endArrow=none;html=1;rounded=0;" parent="1" target="y7qUvzlX0odKQmyKiK_r-38" edge="1">
          <mxGeometry width="50" height="50" relative="1" as="geometry">
            <mxPoint x="-1665" y="80" as="sourcePoint" />
            <mxPoint x="-1615" y="30" as="targetPoint" />
          </mxGeometry>
        </mxCell>
        <mxCell id="y7qUvzlX0odKQmyKiK_r-59" value="" style="endArrow=none;html=1;rounded=0;entryX=0.65;entryY=0.719;entryDx=0;entryDy=0;entryPerimeter=0;" parent="1" source="y7qUvzlX0odKQmyKiK_r-37" target="y7qUvzlX0odKQmyKiK_r-38" edge="1">
          <mxGeometry width="50" height="50" relative="1" as="geometry">
            <mxPoint x="-1580" y="280" as="sourcePoint" />
            <mxPoint x="-1550" y="90" as="targetPoint" />
          </mxGeometry>
        </mxCell>
        <mxCell id="y7qUvzlX0odKQmyKiK_r-60" value="" style="shape=waypoint;sketch=0;size=6;pointerEvents=1;points=[];fillColor=none;resizable=0;rotatable=0;perimeter=centerPerimeter;snapToPoint=1;" parent="1" vertex="1">
          <mxGeometry x="-1590" y="883" width="20" height="20" as="geometry" />
        </mxCell>
        <mxCell id="y7qUvzlX0odKQmyKiK_r-63" value="" style="shape=waypoint;sketch=0;size=6;pointerEvents=1;points=[];fillColor=none;resizable=0;rotatable=0;perimeter=centerPerimeter;snapToPoint=1;" parent="1" vertex="1">
          <mxGeometry x="-880" y="685" width="20" height="20" as="geometry" />
        </mxCell>
        <mxCell id="y7qUvzlX0odKQmyKiK_r-71" style="edgeStyle=orthogonalEdgeStyle;rounded=0;orthogonalLoop=1;jettySize=auto;html=1;" parent="1" source="y7qUvzlX0odKQmyKiK_r-64" target="y7qUvzlX0odKQmyKiK_r-65" edge="1">
          <mxGeometry relative="1" as="geometry" />
        </mxCell>
        <mxCell id="y7qUvzlX0odKQmyKiK_r-64" value="lambda" style="text;html=1;align=center;verticalAlign=middle;resizable=0;points=[];autosize=1;strokeColor=none;fillColor=none;" parent="1" vertex="1">
          <mxGeometry x="-770" y="188" width="60" height="30" as="geometry" />
        </mxCell>
        <mxCell id="y7qUvzlX0odKQmyKiK_r-65" value="invPx" style="text;html=1;align=center;verticalAlign=middle;resizable=0;points=[];autosize=1;strokeColor=none;fillColor=none;" parent="1" vertex="1">
          <mxGeometry x="-765" y="240" width="50" height="30" as="geometry" />
        </mxCell>
        <mxCell id="y7qUvzlX0odKQmyKiK_r-66" value="" style="endArrow=none;html=1;rounded=0;" parent="1" source="y7qUvzlX0odKQmyKiK_r-67" edge="1">
          <mxGeometry width="50" height="50" relative="1" as="geometry">
            <mxPoint x="-1540" y="340" as="sourcePoint" />
            <mxPoint x="-1540" y="80" as="targetPoint" />
          </mxGeometry>
        </mxCell>
        <mxCell id="y7qUvzlX0odKQmyKiK_r-68" value="" style="endArrow=none;html=1;rounded=0;" parent="1" target="y7qUvzlX0odKQmyKiK_r-67" edge="1">
          <mxGeometry width="50" height="50" relative="1" as="geometry">
            <mxPoint x="-1540.25" y="335" as="sourcePoint" />
            <mxPoint x="-1540.25" y="95" as="targetPoint" />
          </mxGeometry>
        </mxCell>
        <mxCell id="y7qUvzlX0odKQmyKiK_r-67" value="" style="shape=waypoint;sketch=0;size=6;pointerEvents=1;points=[];fillColor=none;resizable=0;rotatable=0;perimeter=centerPerimeter;snapToPoint=1;" parent="1" vertex="1">
          <mxGeometry x="-1550" y="70" width="20" height="20" as="geometry" />
        </mxCell>
        <mxCell id="y7qUvzlX0odKQmyKiK_r-69" value="" style="shape=waypoint;sketch=0;size=6;pointerEvents=1;points=[];fillColor=none;resizable=0;rotatable=0;perimeter=centerPerimeter;snapToPoint=1;" parent="1" vertex="1">
          <mxGeometry x="-1550" y="325" width="20" height="20" as="geometry" />
        </mxCell>
        <mxCell id="y7qUvzlX0odKQmyKiK_r-72" value="" style="endArrow=none;html=1;rounded=0;exitX=1.005;exitY=0.395;exitDx=0;exitDy=0;exitPerimeter=0;" parent="1" source="y7qUvzlX0odKQmyKiK_r-64" edge="1">
          <mxGeometry width="50" height="50" relative="1" as="geometry">
            <mxPoint x="-780" y="290" as="sourcePoint" />
            <mxPoint x="-680" y="200" as="targetPoint" />
          </mxGeometry>
        </mxCell>
        <mxCell id="y7qUvzlX0odKQmyKiK_r-114" style="edgeStyle=orthogonalEdgeStyle;rounded=0;orthogonalLoop=1;jettySize=auto;html=1;" parent="1" source="y7qUvzlX0odKQmyKiK_r-73" target="y7qUvzlX0odKQmyKiK_r-81" edge="1">
          <mxGeometry relative="1" as="geometry" />
        </mxCell>
        <mxCell id="y7qUvzlX0odKQmyKiK_r-73" value="EEE" style="text;html=1;align=center;verticalAlign=middle;resizable=0;points=[];autosize=1;strokeColor=none;fillColor=none;" parent="1" vertex="1">
          <mxGeometry x="-210" y="-95" width="50" height="30" as="geometry" />
        </mxCell>
        <mxCell id="y7qUvzlX0odKQmyKiK_r-74" value="EE_real" style="text;html=1;align=center;verticalAlign=middle;resizable=0;points=[];autosize=1;strokeColor=none;fillColor=none;" parent="1" vertex="1">
          <mxGeometry x="-210" y="-55" width="70" height="30" as="geometry" />
        </mxCell>
        <mxCell id="y7qUvzlX0odKQmyKiK_r-75" value="EE_img" style="text;html=1;align=center;verticalAlign=middle;resizable=0;points=[];autosize=1;strokeColor=none;fillColor=none;" parent="1" vertex="1">
          <mxGeometry x="-210" y="-15" width="70" height="30" as="geometry" />
        </mxCell>
        <mxCell id="y7qUvzlX0odKQmyKiK_r-76" value="gain" style="text;html=1;align=center;verticalAlign=middle;resizable=0;points=[];autosize=1;strokeColor=none;fillColor=none;" parent="1" vertex="1">
          <mxGeometry x="260" y="-70" width="50" height="30" as="geometry" />
        </mxCell>
        <mxCell id="y7qUvzlX0odKQmyKiK_r-77" value="dot_Ae" style="text;html=1;align=center;verticalAlign=middle;resizable=0;points=[];autosize=1;strokeColor=none;fillColor=none;" parent="1" vertex="1">
          <mxGeometry x="90" y="-95" width="60" height="30" as="geometry" />
        </mxCell>
        <mxCell id="y7qUvzlX0odKQmyKiK_r-80" value="&lt;div&gt;dot_EEE&lt;/div&gt;" style="text;html=1;align=center;verticalAlign=middle;resizable=0;points=[];autosize=1;strokeColor=none;fillColor=none;" parent="1" vertex="1">
          <mxGeometry x="90" y="-40" width="70" height="30" as="geometry" />
        </mxCell>
        <mxCell id="y7qUvzlX0odKQmyKiK_r-121" style="edgeStyle=orthogonalEdgeStyle;rounded=0;orthogonalLoop=1;jettySize=auto;html=1;" parent="1" source="y7qUvzlX0odKQmyKiK_r-81" target="y7qUvzlX0odKQmyKiK_r-77" edge="1">
          <mxGeometry relative="1" as="geometry" />
        </mxCell>
        <mxCell id="y7qUvzlX0odKQmyKiK_r-81" value="wEEE" style="text;html=1;align=center;verticalAlign=middle;resizable=0;points=[];autosize=1;strokeColor=none;fillColor=none;" parent="1" vertex="1">
          <mxGeometry x="-50" y="-95" width="60" height="30" as="geometry" />
        </mxCell>
        <mxCell id="y7qUvzlX0odKQmyKiK_r-82" value="" style="endArrow=none;html=1;rounded=0;" parent="1" source="y7qUvzlX0odKQmyKiK_r-94" edge="1">
          <mxGeometry width="50" height="50" relative="1" as="geometry">
            <mxPoint x="-1520" y="880" as="sourcePoint" />
            <mxPoint x="-210" y="-40" as="targetPoint" />
            <Array as="points" />
          </mxGeometry>
        </mxCell>
        <mxCell id="y7qUvzlX0odKQmyKiK_r-83" value="" style="shape=waypoint;sketch=0;size=6;pointerEvents=1;points=[];fillColor=none;resizable=0;rotatable=0;perimeter=centerPerimeter;snapToPoint=1;" parent="1" vertex="1">
          <mxGeometry x="-1530" y="883" width="20" height="20" as="geometry" />
        </mxCell>
        <mxCell id="y7qUvzlX0odKQmyKiK_r-87" value="" style="endArrow=none;html=1;rounded=0;entryX=-0.024;entryY=0.499;entryDx=0;entryDy=0;entryPerimeter=0;" parent="1" source="y7qUvzlX0odKQmyKiK_r-88" target="y7qUvzlX0odKQmyKiK_r-75" edge="1">
          <mxGeometry width="50" height="50" relative="1" as="geometry">
            <mxPoint x="-1470" y="850" as="sourcePoint" />
            <mxPoint x="-220" as="targetPoint" />
            <Array as="points">
              <mxPoint x="-1460" />
            </Array>
          </mxGeometry>
        </mxCell>
        <mxCell id="y7qUvzlX0odKQmyKiK_r-88" value="" style="shape=waypoint;sketch=0;size=6;pointerEvents=1;points=[];fillColor=none;resizable=0;rotatable=0;perimeter=centerPerimeter;snapToPoint=1;" parent="1" vertex="1">
          <mxGeometry x="-1470" y="883" width="20" height="20" as="geometry" />
        </mxCell>
        <mxCell id="y7qUvzlX0odKQmyKiK_r-91" value="" style="endArrow=none;html=1;rounded=0;" parent="1" source="y7qUvzlX0odKQmyKiK_r-65" edge="1">
          <mxGeometry width="50" height="50" relative="1" as="geometry">
            <mxPoint x="-765" y="255" as="sourcePoint" />
            <mxPoint x="-800" y="-20" as="targetPoint" />
            <Array as="points">
              <mxPoint x="-800" y="255" />
            </Array>
          </mxGeometry>
        </mxCell>
        <mxCell id="y7qUvzlX0odKQmyKiK_r-92" value="" style="endArrow=none;html=1;rounded=0;entryX=-0.011;entryY=0.495;entryDx=0;entryDy=0;entryPerimeter=0;" parent="1" target="y7qUvzlX0odKQmyKiK_r-65" edge="1">
          <mxGeometry width="50" height="50" relative="1" as="geometry">
            <mxPoint x="-880" as="sourcePoint" />
            <mxPoint x="-860" y="138" as="targetPoint" />
            <Array as="points">
              <mxPoint x="-880" y="255" />
            </Array>
          </mxGeometry>
        </mxCell>
        <mxCell id="y7qUvzlX0odKQmyKiK_r-93" value="" style="shape=waypoint;sketch=0;size=6;pointerEvents=1;points=[];fillColor=none;resizable=0;rotatable=0;perimeter=centerPerimeter;snapToPoint=1;" parent="1" vertex="1">
          <mxGeometry x="-890" y="-10" width="20" height="20" as="geometry" />
        </mxCell>
        <mxCell id="y7qUvzlX0odKQmyKiK_r-95" value="" style="endArrow=none;html=1;rounded=0;" parent="1" target="y7qUvzlX0odKQmyKiK_r-94" edge="1">
          <mxGeometry width="50" height="50" relative="1" as="geometry">
            <mxPoint x="-800" y="-20" as="sourcePoint" />
            <mxPoint x="-800" y="-30" as="targetPoint" />
            <Array as="points" />
          </mxGeometry>
        </mxCell>
        <mxCell id="y7qUvzlX0odKQmyKiK_r-96" value="" style="endArrow=none;html=1;rounded=0;" parent="1" source="y7qUvzlX0odKQmyKiK_r-83" target="y7qUvzlX0odKQmyKiK_r-94" edge="1">
          <mxGeometry width="50" height="50" relative="1" as="geometry">
            <mxPoint x="-1520" y="893" as="sourcePoint" />
            <mxPoint x="-205" y="-35" as="targetPoint" />
            <Array as="points">
              <mxPoint x="-1520" y="-40" />
            </Array>
          </mxGeometry>
        </mxCell>
        <mxCell id="y7qUvzlX0odKQmyKiK_r-94" value="" style="shape=waypoint;sketch=0;size=6;pointerEvents=1;points=[];fillColor=none;resizable=0;rotatable=0;perimeter=centerPerimeter;snapToPoint=1;" parent="1" vertex="1">
          <mxGeometry x="-810" y="-50" width="20" height="20" as="geometry" />
        </mxCell>
        <mxCell id="y7qUvzlX0odKQmyKiK_r-97" value="" style="shape=waypoint;sketch=0;size=6;pointerEvents=1;points=[];fillColor=none;resizable=0;rotatable=0;perimeter=centerPerimeter;snapToPoint=1;" parent="1" vertex="1">
          <mxGeometry x="-1500" y="405" width="20" height="20" as="geometry" />
        </mxCell>
        <mxCell id="y7qUvzlX0odKQmyKiK_r-100" value="" style="shape=waypoint;sketch=0;size=6;pointerEvents=1;points=[];fillColor=none;resizable=0;rotatable=0;perimeter=centerPerimeter;snapToPoint=1;" parent="1" vertex="1">
          <mxGeometry x="-1510" y="365" width="20" height="20" as="geometry" />
        </mxCell>
        <mxCell id="y7qUvzlX0odKQmyKiK_r-101" value="" style="shape=waypoint;sketch=0;size=6;pointerEvents=1;points=[];fillColor=none;resizable=0;rotatable=0;perimeter=centerPerimeter;snapToPoint=1;" parent="1" vertex="1">
          <mxGeometry x="-1410" y="325" width="20" height="20" as="geometry" />
        </mxCell>
        <mxCell id="y7qUvzlX0odKQmyKiK_r-103" value="" style="shape=waypoint;sketch=0;size=6;pointerEvents=1;points=[];fillColor=none;resizable=0;rotatable=0;perimeter=centerPerimeter;snapToPoint=1;" parent="1" vertex="1">
          <mxGeometry x="-1380" y="285" width="20" height="20" as="geometry" />
        </mxCell>
        <mxCell id="y7qUvzlX0odKQmyKiK_r-104" value="" style="endArrow=none;html=1;rounded=0;" parent="1" source="y7qUvzlX0odKQmyKiK_r-107" edge="1">
          <mxGeometry width="50" height="50" relative="1" as="geometry">
            <mxPoint x="-1440" y="290" as="sourcePoint" />
            <mxPoint x="-1440" y="-80" as="targetPoint" />
          </mxGeometry>
        </mxCell>
        <mxCell id="y7qUvzlX0odKQmyKiK_r-105" value="" style="endArrow=none;html=1;rounded=0;entryX=0.015;entryY=0.542;entryDx=0;entryDy=0;entryPerimeter=0;" parent="1" target="y7qUvzlX0odKQmyKiK_r-73" edge="1">
          <mxGeometry width="50" height="50" relative="1" as="geometry">
            <mxPoint x="-1440" y="-80" as="sourcePoint" />
            <mxPoint x="-280" y="-80" as="targetPoint" />
          </mxGeometry>
        </mxCell>
        <mxCell id="y7qUvzlX0odKQmyKiK_r-106" value="" style="endArrow=none;html=1;rounded=0;" parent="1" source="y7qUvzlX0odKQmyKiK_r-109" edge="1">
          <mxGeometry width="50" height="50" relative="1" as="geometry">
            <mxPoint x="-1440" y="850" as="sourcePoint" />
            <mxPoint x="-1420" y="-80" as="targetPoint" />
          </mxGeometry>
        </mxCell>
        <mxCell id="y7qUvzlX0odKQmyKiK_r-108" value="" style="endArrow=none;html=1;rounded=0;" parent="1" target="y7qUvzlX0odKQmyKiK_r-107" edge="1">
          <mxGeometry width="50" height="50" relative="1" as="geometry">
            <mxPoint x="-1440" y="290" as="sourcePoint" />
            <mxPoint x="-1390" y="230" as="targetPoint" />
          </mxGeometry>
        </mxCell>
        <mxCell id="y7qUvzlX0odKQmyKiK_r-107" value="" style="shape=waypoint;sketch=0;size=6;pointerEvents=1;points=[];fillColor=none;resizable=0;rotatable=0;perimeter=centerPerimeter;snapToPoint=1;" parent="1" vertex="1">
          <mxGeometry x="-1450" y="325" width="20" height="20" as="geometry" />
        </mxCell>
        <mxCell id="y7qUvzlX0odKQmyKiK_r-109" value="" style="shape=waypoint;sketch=0;size=6;pointerEvents=1;points=[];fillColor=none;resizable=0;rotatable=0;perimeter=centerPerimeter;snapToPoint=1;" parent="1" vertex="1">
          <mxGeometry x="-1430" y="843" width="20" height="20" as="geometry" />
        </mxCell>
        <mxCell id="y7qUvzlX0odKQmyKiK_r-112" value="" style="endArrow=none;html=1;rounded=0;" parent="1" source="y7qUvzlX0odKQmyKiK_r-65" target="y7qUvzlX0odKQmyKiK_r-113" edge="1">
          <mxGeometry width="50" height="50" relative="1" as="geometry">
            <mxPoint x="-880" y="260" as="sourcePoint" />
            <mxPoint x="-950" y="-70" as="targetPoint" />
            <Array as="points">
              <mxPoint x="-950" y="255" />
            </Array>
          </mxGeometry>
        </mxCell>
        <mxCell id="y7qUvzlX0odKQmyKiK_r-113" value="" style="shape=waypoint;sketch=0;size=6;pointerEvents=1;points=[];fillColor=none;resizable=0;rotatable=0;perimeter=centerPerimeter;snapToPoint=1;" parent="1" vertex="1">
          <mxGeometry x="-960" y="-90" width="20" height="20" as="geometry" />
        </mxCell>
        <mxCell id="y7qUvzlX0odKQmyKiK_r-115" value="wwin" style="text;html=1;align=center;verticalAlign=middle;resizable=0;points=[];autosize=1;strokeColor=none;fillColor=none;" parent="1" vertex="1">
          <mxGeometry x="-145" y="-190" width="50" height="30" as="geometry" />
        </mxCell>
        <mxCell id="y7qUvzlX0odKQmyKiK_r-117" value="" style="endArrow=none;html=1;rounded=0;" parent="1" target="y7qUvzlX0odKQmyKiK_r-115" edge="1">
          <mxGeometry width="50" height="50" relative="1" as="geometry">
            <mxPoint x="-120" y="-80" as="sourcePoint" />
            <mxPoint x="-30" y="-170" as="targetPoint" />
          </mxGeometry>
        </mxCell>
        <mxCell id="y7qUvzlX0odKQmyKiK_r-118" value="" style="endArrow=none;html=1;rounded=0;" parent="1" edge="1">
          <mxGeometry width="50" height="50" relative="1" as="geometry">
            <mxPoint x="-1340" y="850" as="sourcePoint" />
            <mxPoint x="-90" y="-80" as="targetPoint" />
            <Array as="points">
              <mxPoint x="-1350" y="-100" />
              <mxPoint x="-90" y="-100" />
            </Array>
          </mxGeometry>
        </mxCell>
        <mxCell id="y7qUvzlX0odKQmyKiK_r-119" value="" style="shape=waypoint;sketch=0;size=6;pointerEvents=1;points=[];fillColor=none;resizable=0;rotatable=0;perimeter=centerPerimeter;snapToPoint=1;" parent="1" vertex="1">
          <mxGeometry x="-1350" y="843" width="20" height="20" as="geometry" />
        </mxCell>
        <mxCell id="y7qUvzlX0odKQmyKiK_r-123" value="" style="endArrow=classic;html=1;rounded=0;exitX=0.508;exitY=0.983;exitDx=0;exitDy=0;exitPerimeter=0;" parent="1" source="y7qUvzlX0odKQmyKiK_r-81" target="y7qUvzlX0odKQmyKiK_r-80" edge="1">
          <mxGeometry width="50" height="50" relative="1" as="geometry">
            <mxPoint x="-40" y="-20" as="sourcePoint" />
            <mxPoint x="-40" y="10" as="targetPoint" />
            <Array as="points">
              <mxPoint x="-20" y="-25" />
            </Array>
          </mxGeometry>
        </mxCell>
        <mxCell id="y7qUvzlX0odKQmyKiK_r-126" value="" style="endArrow=classic;html=1;rounded=0;exitX=0.519;exitY=-0.037;exitDx=0;exitDy=0;exitPerimeter=0;" parent="1" source="y7qUvzlX0odKQmyKiK_r-39" edge="1">
          <mxGeometry width="50" height="50" relative="1" as="geometry">
            <mxPoint x="-1710" y="-120" as="sourcePoint" />
            <mxPoint x="260" y="-60" as="targetPoint" />
            <Array as="points">
              <mxPoint x="-1694" y="-110" />
              <mxPoint x="200" y="-110" />
              <mxPoint x="200" y="-60" />
            </Array>
          </mxGeometry>
        </mxCell>
        <mxCell id="y7qUvzlX0odKQmyKiK_r-127" value="" style="endArrow=none;html=1;rounded=0;exitX=1.024;exitY=0.433;exitDx=0;exitDy=0;exitPerimeter=0;" parent="1" source="y7qUvzlX0odKQmyKiK_r-80" edge="1">
          <mxGeometry width="50" height="50" relative="1" as="geometry">
            <mxPoint x="100" y="-30" as="sourcePoint" />
            <mxPoint x="150" y="-80" as="targetPoint" />
            <Array as="points">
              <mxPoint x="200" y="-27" />
              <mxPoint x="200" y="-80" />
            </Array>
          </mxGeometry>
        </mxCell>
        <mxCell id="y7qUvzlX0odKQmyKiK_r-128" value="etmp_real" style="text;html=1;align=center;verticalAlign=middle;resizable=0;points=[];autosize=1;strokeColor=none;fillColor=none;" parent="1" vertex="1">
          <mxGeometry x="360" y="-120" width="80" height="30" as="geometry" />
        </mxCell>
        <mxCell id="y7qUvzlX0odKQmyKiK_r-129" value="etmp_img" style="text;html=1;align=center;verticalAlign=middle;resizable=0;points=[];autosize=1;strokeColor=none;fillColor=none;" parent="1" vertex="1">
          <mxGeometry x="360" y="-40" width="80" height="30" as="geometry" />
        </mxCell>
        <mxCell id="y7qUvzlX0odKQmyKiK_r-130" value="" style="endArrow=classic;html=1;rounded=0;" parent="1" edge="1">
          <mxGeometry width="50" height="50" relative="1" as="geometry">
            <mxPoint x="310" y="-55" as="sourcePoint" />
            <mxPoint x="360" y="-105" as="targetPoint" />
            <Array as="points">
              <mxPoint x="330" y="-55" />
              <mxPoint x="330" y="-105" />
            </Array>
          </mxGeometry>
        </mxCell>
        <mxCell id="y7qUvzlX0odKQmyKiK_r-131" value="" style="endArrow=classic;html=1;rounded=0;entryX=-0.02;entryY=0.488;entryDx=0;entryDy=0;entryPerimeter=0;" parent="1" target="y7qUvzlX0odKQmyKiK_r-129" edge="1">
          <mxGeometry width="50" height="50" relative="1" as="geometry">
            <mxPoint x="330" y="-60" as="sourcePoint" />
            <mxPoint x="340" y="15" as="targetPoint" />
            <Array as="points">
              <mxPoint x="330" y="-25" />
            </Array>
          </mxGeometry>
        </mxCell>
        <mxCell id="y7qUvzlX0odKQmyKiK_r-132" value="" style="endArrow=classic;html=1;rounded=0;entryX=-0.05;entryY=0.548;entryDx=0;entryDy=0;entryPerimeter=0;" parent="1" source="y7qUvzlX0odKQmyKiK_r-129" target="iwTZe3qdNlnF6z6AMZCM-47" edge="1">
          <mxGeometry width="50" height="50" relative="1" as="geometry">
            <mxPoint x="100" y="150" as="sourcePoint" />
            <mxPoint x="-1770" y="1270" as="targetPoint" />
            <Array as="points">
              <mxPoint x="400" y="1710" />
              <mxPoint x="-1860" y="1710" />
              <mxPoint x="-1860" y="1176" />
            </Array>
          </mxGeometry>
        </mxCell>
        <mxCell id="y7qUvzlX0odKQmyKiK_r-133" value="" style="endArrow=classic;html=1;rounded=0;" parent="1" target="iwTZe3qdNlnF6z6AMZCM-46" edge="1">
          <mxGeometry width="50" height="50" relative="1" as="geometry">
            <mxPoint x="440" y="-110" as="sourcePoint" />
            <mxPoint x="-1770" y="1230" as="targetPoint" />
            <Array as="points">
              <mxPoint x="440" y="1720" />
              <mxPoint x="-1870" y="1720" />
              <mxPoint x="-1870" y="1215" />
            </Array>
          </mxGeometry>
        </mxCell>
        <mxCell id="y7qUvzlX0odKQmyKiK_r-134" value="" style="shape=waypoint;sketch=0;size=6;pointerEvents=1;points=[];fillColor=none;resizable=0;rotatable=0;perimeter=centerPerimeter;snapToPoint=1;" parent="1" vertex="1">
          <mxGeometry x="-100" y="-90" width="20" height="20" as="geometry" />
        </mxCell>
        <mxCell id="uPNpUrJTFhPJvEzBD9rL-1" value="wdD_real" style="text;html=1;align=center;verticalAlign=middle;resizable=0;points=[];autosize=1;strokeColor=none;fillColor=none;" vertex="1" parent="1">
          <mxGeometry x="-210" y="80" width="70" height="30" as="geometry" />
        </mxCell>
        <mxCell id="uPNpUrJTFhPJvEzBD9rL-3" value="wdD_img" style="text;html=1;align=center;verticalAlign=middle;resizable=0;points=[];autosize=1;strokeColor=none;fillColor=none;" vertex="1" parent="1">
          <mxGeometry x="-210" y="140" width="70" height="30" as="geometry" />
        </mxCell>
        <mxCell id="uPNpUrJTFhPJvEzBD9rL-4" value="sum_E" style="text;html=1;align=center;verticalAlign=middle;resizable=0;points=[];autosize=1;strokeColor=none;fillColor=none;" vertex="1" parent="1">
          <mxGeometry x="-200" y="218" width="60" height="30" as="geometry" />
        </mxCell>
        <mxCell id="uPNpUrJTFhPJvEzBD9rL-5" value="sum_dD" style="text;html=1;align=center;verticalAlign=middle;resizable=0;points=[];autosize=1;strokeColor=none;fillColor=none;" vertex="1" parent="1">
          <mxGeometry x="-200" y="268" width="70" height="30" as="geometry" />
        </mxCell>
        <mxCell id="uPNpUrJTFhPJvEzBD9rL-6" value="gamma2" style="text;html=1;align=center;verticalAlign=middle;resizable=0;points=[];autosize=1;strokeColor=none;fillColor=none;" vertex="1" parent="1">
          <mxGeometry x="-30" y="240" width="70" height="30" as="geometry" />
        </mxCell>
      </root>
    </mxGraphModel>
  </diagram>
  <diagram id="gb5AH_z7J8QiiSMphCpQ" name="Page-2">
    <mxGraphModel dx="1114" dy="610" grid="1" gridSize="10" guides="1" tooltips="1" connect="1" arrows="1" fold="1" page="1" pageScale="1" pageWidth="850" pageHeight="1100" math="0" shadow="0">
      <root>
        <mxCell id="0" />
        <mxCell id="1" parent="0" />
      </root>
    </mxGraphModel>
  </diagram>
</mxfile>
